<svg width="156" height="156" viewBox="0 0 156 156" fill="none" xmlns="http://www.w3.org/2000/svg">
<g clip-path="url(#clip0)">
<g filter="url(#filter0_i)">
<rect width="156" height="156" rx="10" fill="url(#paint0_linear)"/>
<rect width="156" height="156" rx="10" fill="url(#paint1_linear)" fill-opacity="0.2"/>
</g>
<path opacity="0.099" fill-rule="evenodd" clip-rule="evenodd" d="M79.6471 51.9091L83.4902 50.8182L90.0784 49.1818L96.6667 47L106 68.0247L89.5294 77L78 63.9091L79.6471 51.9091Z" fill="url(#paint2_linear)"/>
<g filter="url(#filter1_f)">
<ellipse cx="38.2251" cy="20.4354" rx="26" ry="79.4006" transform="rotate(31.0466 38.2251 20.4354)" fill="#1AFFE3"/>
</g>
<g filter="url(#filter2_f)">
<ellipse cx="85.8429" cy="81.4066" rx="11.4694" ry="9.97479" transform="rotate(-2.19405 85.8429 81.4066)" fill="#91DEFF"/>
</g>
<path opacity="0.099" fill-rule="evenodd" clip-rule="evenodd" d="M79.6471 78.6818L83.4902 77.6252L90.0784 76.0403L95.5686 74.9837L106 94.2906L89.5294 102.984L78 90.3044L79.6471 78.6818Z" fill="url(#paint3_linear)"/>
<path opacity="0.099" fill-rule="evenodd" clip-rule="evenodd" d="M79.6471 106.745L83.4902 105.691L90.0784 104.109L96.6667 102L106 122.324L89.5294 131L78 118.345L79.6471 106.745Z" fill="url(#paint4_linear)"/>
<path opacity="0.099" fill-rule="evenodd" clip-rule="evenodd" d="M115.08 51.2963L118.86 50.2222L125.34 48.6111L131.28 47L141 67.1632L124.8 76L114 63.1111L115.08 51.2963Z" fill="url(#paint5_linear)"/>
<path opacity="0.099" fill-rule="evenodd" clip-rule="evenodd" d="M115.08 78.0223L118.86 76.9482L125.34 75.3371L131.28 73.726L141 93.8892L124.8 102.726L114 89.8371L115.08 78.0223Z" fill="url(#paint6_linear)"/>
<path opacity="0.099" fill-rule="evenodd" clip-rule="evenodd" d="M115.08 105.022L118.86 103.948L125.34 102.337L131.28 100.726L141 120.889L124.8 129.726L114 116.837L115.08 105.022Z" fill="url(#paint7_linear)"/>
<rect x="114" y="46.274" width="19" height="19" rx="2" fill="white"/>
<rect x="114" y="46.274" width="19" height="19" rx="2" fill="white"/>
<rect x="114" y="72.9837" width="19" height="20" rx="2" fill="white"/>
<rect x="114" y="72.9837" width="19" height="20" rx="2" fill="white"/>
<rect x="114" y="101" width="19" height="19" rx="2" fill="white"/>
<rect x="78" y="46.274" width="19" height="19" rx="2" fill="white"/>
<rect x="78" y="46.274" width="19" height="19" rx="2" fill="white"/>
<rect x="78" y="101" width="19" height="19" rx="2" fill="white"/>
<rect x="114" y="31" width="19" height="8" rx="1" fill="#00789D"/>
<rect x="78" y="31" width="19" height="8" rx="1" fill="#00789D"/>
<rect x="78.65" y="73.6337" width="17.7" height="18.7" rx="1.35" fill="#BBE9FF" stroke="white" stroke-width="1.3"/>
<path d="M9.79377 85.4697L0 101V75.5798V37V0H78.9393L72.1152 9.05305L21.3465 71.301L73.7587 151H53L9.79377 85.4697Z" fill="url(#paint8_linear)"/>
<path d="M83 83L85.2929 85.2929C85.6834 85.6834 86.3166 85.6834 86.7071 85.2929L92 80" stroke="#0097D7" stroke-width="2"/>
</g>
<defs>
<filter id="filter0_i" x="0" y="0" width="156" height="156" filterUnits="userSpaceOnUse" color-interpolation-filters="sRGB">
<feFlood flood-opacity="0" result="BackgroundImageFix"/>
<feBlend mode="normal" in="SourceGraphic" in2="BackgroundImageFix" result="shape"/>
<feColorMatrix in="SourceAlpha" type="matrix" values="0 0 0 0 0 0 0 0 0 0 0 0 0 0 0 0 0 0 127 0" result="hardAlpha"/>
<feOffset dy="-5"/>
<feComposite in2="hardAlpha" operator="arithmetic" k2="-1" k3="1"/>
<feColorMatrix type="matrix" values="0 0 0 0 0.0718056 0 0 0 0 0.2959 0 0 0 0 0.366667 0 0 0 1 0"/>
<feBlend mode="normal" in2="shape" result="effect1_innerShadow"/>
</filter>
<filter id="filter1_f" x="-66" y="-102" width="208.45" height="244.871" filterUnits="userSpaceOnUse" color-interpolation-filters="sRGB">
<feFlood flood-opacity="0" result="BackgroundImageFix"/>
<feBlend mode="normal" in="SourceGraphic" in2="BackgroundImageFix" result="shape"/>
<feGaussianBlur stdDeviation="20.5" result="effect1_foregroundBlur"/>
</filter>
<filter id="filter2_f" x="58" y="55" width="55.6857" height="52.8131" filterUnits="userSpaceOnUse" color-interpolation-filters="sRGB">
<feFlood flood-opacity="0" result="BackgroundImageFix"/>
<feBlend mode="normal" in="SourceGraphic" in2="BackgroundImageFix" result="shape"/>
<feGaussianBlur stdDeviation="8" result="effect1_foregroundBlur"/>
</filter>
<linearGradient id="paint0_linear" x1="-47" y1="5.5" x2="244" y2="156" gradientUnits="userSpaceOnUse">
<stop stop-color="#00FFFF"/>
<stop offset="0.90625" stop-color="#0085FF"/>
</linearGradient>
<linearGradient id="paint1_linear" x1="78" y1="0" x2="78" y2="156" gradientUnits="userSpaceOnUse">
<stop offset="0.195213" stop-opacity="0"/>
<stop offset="0.93294" stop-color="#005555"/>
</linearGradient>
<linearGradient id="paint2_linear" x1="83.0781" y1="50.8179" x2="95.4543" y2="71.0727" gradientUnits="userSpaceOnUse">
<stop/>
<stop offset="1" stop-opacity="0"/>
</linearGradient>
<linearGradient id="paint3_linear" x1="83.0781" y1="77.6249" x2="94.8869" y2="97.5786" gradientUnits="userSpaceOnUse">
<stop/>
<stop offset="1" stop-opacity="0"/>
</linearGradient>
<linearGradient id="paint4_linear" x1="83.0781" y1="105.691" x2="94.8528" y2="125.626" gradientUnits="userSpaceOnUse">
<stop/>
<stop offset="1" stop-opacity="0"/>
</linearGradient>
<linearGradient id="paint5_linear" x1="118.455" y1="50.2219" x2="130.646" y2="70.1532" gradientUnits="userSpaceOnUse">
<stop/>
<stop offset="1" stop-opacity="0"/>
</linearGradient>
<linearGradient id="paint6_linear" x1="118.455" y1="76.9479" x2="130.646" y2="96.8792" gradientUnits="userSpaceOnUse">
<stop/>
<stop offset="1" stop-opacity="0"/>
</linearGradient>
<linearGradient id="paint7_linear" x1="118.455" y1="103.948" x2="130.646" y2="123.879" gradientUnits="userSpaceOnUse">
<stop/>
<stop offset="1" stop-opacity="0"/>
</linearGradient>
<linearGradient id="paint8_linear" x1="-57" y1="200" x2="161.016" y2="-112.941" gradientUnits="userSpaceOnUse">
<stop stop-color="#777777" stop-opacity="0"/>
<stop offset="0.377454" stop-opacity="0.661605"/>
<stop offset="0.531988" stop-color="#124B5E"/>
</linearGradient>
<clipPath id="clip0">
<rect width="156" height="156" rx="10" fill="white"/>
</clipPath>
</defs>
</svg>
